<?xml version="1.0" encoding="UTF-8" standalone="no"?>
<!-- Created with Inkscape (http://www.inkscape.org/) -->

<svg
   xmlns:ns0="http://www.iki.fi/pav/software/textext/"
   xmlns:dc="http://purl.org/dc/elements/1.1/"
   xmlns:cc="http://creativecommons.org/ns#"
   xmlns:rdf="http://www.w3.org/1999/02/22-rdf-syntax-ns#"
   xmlns:svg="http://www.w3.org/2000/svg"
   xmlns="http://www.w3.org/2000/svg"
   xmlns:xlink="http://www.w3.org/1999/xlink"
   xmlns:sodipodi="http://sodipodi.sourceforge.net/DTD/sodipodi-0.dtd"
   xmlns:inkscape="http://www.inkscape.org/namespaces/inkscape"
   width="145.09439mm"
   height="23.354145mm"
   viewBox="0 0 514.11398 82.750907"
   id="svg2"
   version="1.1"
   inkscape:version="0.91 r13725"
   sodipodi:docname="discretization.svg">
  <sodipodi:namedview
     id="base"
     pagecolor="#ffffff"
     bordercolor="#666666"
     borderopacity="1.0"
     inkscape:pageopacity="0.0"
     inkscape:pageshadow="2"
     inkscape:zoom="2.7709666"
     inkscape:cx="320.52252"
     inkscape:cy="47.874116"
     inkscape:document-units="px"
     inkscape:current-layer="layer1"
     showgrid="false"
     inkscape:window-width="1847"
     inkscape:window-height="1053"
     inkscape:window-x="73"
     inkscape:window-y="27"
     inkscape:window-maximized="1"
     fit-margin-top="0"
     fit-margin-left="0"
     fit-margin-right="0"
     fit-margin-bottom="0" />
  <defs
     id="defs4">
    <defs
       id="defs4354">
      <g
         id="g4356">
        <symbol
           overflow="visible"
           id="textext-2b07103c-0"
           style="overflow:visible">
          <path
             style="stroke:none"
             d=""
             id="path4359"
             inkscape:connector-curvature="0" />
        </symbol>
        <symbol
           overflow="visible"
           id="textext-2b07103c-1"
           style="overflow:visible">
          <path
             style="stroke:none"
             d="m 3.40625,-2.046875 c 0.015625,-0.078125 0.015625,-0.09375 0.015625,-0.21875 0,-0.46875 -0.3125,-0.9375 -1.015625,-0.9375 -0.421875,0 -0.78125,0.09375 -1.21875,0.296875 L 1.125,-2.390625 C 1.5,-2.625 1.875,-2.75 2.328125,-2.75 c 0.34375,0 0.484375,0.265625 0.484375,0.53125 0,0.0625 0,0.078125 -0.078125,0.5 C 2.25,-1.703125 0.46875,-1.640625 0.46875,-0.625 c 0,0.203125 0.09375,0.6875 0.6875,0.6875 0.140625,0 0.765625,0 1.28125,-0.328125 L 2.390625,0 2.96875,0 Z m -0.765625,0.71875 C 2.546875,-0.84375 2.53125,-0.75 2.375,-0.609375 c -0.21875,0.15625 -0.53125,0.21875 -0.75,0.21875 -0.328125,0 -0.59375,-0.125 -0.59375,-0.375 0,-0.25 0.25,-0.375 0.6875,-0.46875 0.359375,-0.078125 0.765625,-0.09375 0.921875,-0.09375 z m 0,0"
             id="path4362"
             inkscape:connector-curvature="0" />
        </symbol>
        <symbol
           overflow="visible"
           id="textext-2b07103c-2"
           style="overflow:visible">
          <path
             style="stroke:none"
             d=""
             id="path4365"
             inkscape:connector-curvature="0" />
        </symbol>
        <symbol
           overflow="visible"
           id="textext-2b07103c-3"
           style="overflow:visible">
          <path
             style="stroke:none"
             d="m 4.578125,-0.921875 c 0,-0.265625 0,-0.28125 -0.203125,-0.28125 -1.015625,0 -3.265625,0.484375 -4.609375,2.921875 l 0,0.15625 c 0,0.25 0,0.265625 0.234375,0.265625 0.1875,0 0.203125,-0.015625 0.25,-0.09375 C 1.0625,0.75 2.4375,0.046875 4.46875,0 4.578125,0 4.578125,-0.0625 4.578125,-0.28125 Z m 0,0"
             id="path4368"
             inkscape:connector-curvature="0" />
        </symbol>
        <symbol
           overflow="visible"
           id="textext-2b07103c-4"
           style="overflow:visible">
          <path
             style="stroke:none"
             d="m 4.71875,-3.078125 c 0,-0.234375 0,-0.25 -0.234375,-0.25 -0.1875,0 -0.203125,0.015625 -0.25,0.078125 -0.8125,1.3125 -2.1875,2.015625 -4.21875,2.046875 -0.109375,0 -0.109375,0.078125 -0.109375,0.28125 l 0,0.640625 c 0,0.265625 0,0.28125 0.203125,0.28125 C 1.125,0 3.375,-0.484375 4.71875,-2.90625 Z m 0,0"
             id="path4371"
             inkscape:connector-curvature="0" />
        </symbol>
        <symbol
           overflow="visible"
           id="textext-2b07103c-5"
           style="overflow:visible">
          <path
             style="stroke:none"
             d="m 4.578125,-0.921875 c 0,-0.21875 0,-0.28125 -0.125,-0.28125 -0.609375,0 -1.609375,-0.078125 -2.5,-0.515625 C 0.875,-2.265625 0.46875,-2.890625 0.21875,-3.28125 0.1875,-3.328125 0.125,-3.328125 0,-3.328125 c -0.234375,0 -0.234375,0.015625 -0.234375,0.25 l 0,0.171875 C 1.109375,-0.46875 3.359375,0 4.375,0 4.578125,0 4.578125,-0.015625 4.578125,-0.28125 Z m 0,0"
             id="path4374"
             inkscape:connector-curvature="0" />
        </symbol>
        <symbol
           overflow="visible"
           id="textext-2b07103c-6"
           style="overflow:visible">
          <path
             style="stroke:none"
             d="M 4.71875,1.71875 C 3.375,-0.734375 1.125,-1.203125 0.109375,-1.203125 c -0.203125,0 -0.203125,0.015625 -0.203125,0.28125 l 0,0.640625 c 0,0.234375 0,0.28125 0.140625,0.28125 0.59375,0.015625 1.59375,0.09375 2.484375,0.53125 1.078125,0.53125 1.484375,1.15625 1.734375,1.546875 0.03125,0.0625 0.09375,0.0625 0.21875,0.0625 C 4.71875,2.140625 4.71875,2.125 4.71875,1.875 Z m 0,0"
             id="path4377"
             inkscape:connector-curvature="0" />
        </symbol>
        <symbol
           overflow="visible"
           id="textext-2b07103c-7"
           style="overflow:visible">
          <path
             style="stroke:none"
             d=""
             id="path4380"
             inkscape:connector-curvature="0" />
        </symbol>
        <symbol
           overflow="visible"
           id="textext-2b07103c-8"
           style="overflow:visible">
          <path
             style="stroke:none"
             d="m 3.078125,-2.28125 2.28125,-2.140625 -0.828125,0 L 2.859375,-2.78125 1.828125,-4.421875 1,-4.421875 2.421875,-2.28125 0,0 0.8125,0 2.65625,-1.875 3.765625,0 l 0.8125,0 z m 0,0"
             id="path4383"
             inkscape:connector-curvature="0" />
        </symbol>
      </g>
    </defs>
  </defs>
  <metadata
     id="metadata7">
    <rdf:RDF>
      <cc:Work
         rdf:about="">
        <dc:format>image/svg+xml</dc:format>
        <dc:type
           rdf:resource="http://purl.org/dc/dcmitype/StillImage" />
        <dc:title></dc:title>
      </cc:Work>
    </rdf:RDF>
  </metadata>
  <g
     id="layer1"
     inkscape:groupmode="layer"
     inkscape:label="Layer 1"
     transform="translate(-44.932319,-257.88568)">
    <path
       inkscape:connector-curvature="0"
       id="path4136"
       d="m 44.932319,306.24923 204.560291,0"
       style="fill:none;fill-rule:evenodd;stroke:#000000;stroke-width:4;stroke-linecap:butt;stroke-linejoin:miter;stroke-miterlimit:4;stroke-dasharray:none;stroke-opacity:1" />
    <g
       id="g4144"
       ns0:preamble="/home/michael/inksans.preamble"
       ns0:text="\\ding{220}\n"
       transform="matrix(4.6285817,0,0,4.6285817,-743.02326,-303.7184)">
      <defs
         id="defs4146">
        <g
           id="g4148">
          <symbol
             id="textext-ed0a4689-0"
             overflow="visible"
             style="overflow:visible">
            <path
               id="path4151"
               d=""
               style="stroke:none"
               inkscape:connector-curvature="0" />
          </symbol>
          <symbol
             id="textext-ed0a4689-1"
             overflow="visible"
             style="overflow:visible">
            <path
               id="path4154"
               d="M 5.796875,-2.59375 5.28125,-2.0625 c -0.359375,0.34375 -0.484375,0.578125 -0.484375,0.859375 0,0.5 0.421875,0.921875 0.921875,0.921875 0.328125,0 0.53125,-0.125 0.90625,-0.5625 L 8.890625,-3.484375 6.625,-6.078125 C 6.25,-6.5 6.0625,-6.625 5.75,-6.625 c -0.5,0 -0.921875,0.421875 -0.921875,0.90625 0,0.265625 0.15625,0.53125 0.46875,0.84375 l 0.5,0.5 -4.21875,0 C 1.125,-4.375 1.03125,-4.359375 0.8125,-4.25 c -0.265625,0.109375 -0.46875,0.4375 -0.46875,0.765625 0,0.328125 0.203125,0.640625 0.46875,0.765625 0.21875,0.109375 0.328125,0.125 0.765625,0.125 z m 0,0"
               style="stroke:none"
               inkscape:connector-curvature="0" />
          </symbol>
        </g>
      </defs>
      <g
         id="textext-ed0a4689-2">
        <g
           id="g4157"
           style="fill:#000000;fill-opacity:1">
          <use
             id="use4159"
             y="134.765"
             x="223.43201"
             xlink:href="#textext-ed0a4689-1"
             width="100%"
             height="100%" />
        </g>
      </g>
    </g>
    <circle
       r="8.8682241"
       cy="304.47556"
       cx="428.42807"
       id="circle4179"
       style="fill:#000000;fill-opacity:0;stroke:#000000;stroke-width:3.5;stroke-linejoin:bevel;stroke-miterlimit:4;stroke-dasharray:none;stroke-dashoffset:0;stroke-opacity:1" />
    <circle
       style="fill:#000000;fill-opacity:0;stroke:#000000;stroke-width:3.5;stroke-linejoin:bevel;stroke-miterlimit:4;stroke-dasharray:none;stroke-dashoffset:0;stroke-opacity:1"
       id="circle4181"
       cx="508.42807"
       cy="304.47556"
       r="8.8682241" />
    <circle
       r="8.8682241"
       cy="304.47556"
       cx="468.42807"
       id="circle4183"
       style="fill:#000000;fill-opacity:0;stroke:#000000;stroke-width:3.5;stroke-linejoin:bevel;stroke-miterlimit:4;stroke-dasharray:none;stroke-dashoffset:0;stroke-opacity:1" />
    <circle
       r="8.8682241"
       cy="304.47556"
       cx="548.4281"
       id="circle4185"
       style="fill:#000000;fill-opacity:0;stroke:#000000;stroke-width:3.5;stroke-linejoin:bevel;stroke-miterlimit:4;stroke-dasharray:none;stroke-dashoffset:0;stroke-opacity:1" />
    <circle
       style="fill:#000000;fill-opacity:0;stroke:#000000;stroke-width:3.5;stroke-linejoin:bevel;stroke-miterlimit:4;stroke-dasharray:none;stroke-dashoffset:0;stroke-opacity:1"
       id="circle4187"
       cx="388.42807"
       cy="304.47556"
       r="8.8682241" />
    <g
       id="g4386"
       style="fill:#000000;fill-opacity:1"
       transform="matrix(3.8786735,0,0,3.8786735,-466.1504,-229.64368)">
      <use
         id="use4388"
         y="128.89799"
         x="233.564"
         xlink:href="#textext-2b07103c-1"
         width="100%"
         height="100%" />
    </g>
    <g
       id="g4557"
       transform="matrix(0.85922105,0,0,1,59.947172,0)">
      <g
         transform="matrix(2,0,0,2,-20.570439,11.187432)"
         style="fill:#000000;fill-opacity:1"
         id="g4390">
        <use
           height="100%"
           width="100%"
           xlink:href="#textext-2b07103c-3"
           x="223.43201"
           y="135.075"
           id="use4392" />
      </g>
      <path
         inkscape:connector-curvature="0"
         style="fill:#000000;fill-opacity:1;fill-rule:nonzero;stroke:none"
         d="m 435.25768,281.33587 5.95312,0 0,-2.39062 -5.95312,0 z m 0,0"
         id="path4394" />
      <g
         transform="matrix(2,0,0,2,-20.570439,11.187432)"
         style="fill:#000000;fill-opacity:1"
         id="g4396">
        <use
           height="100%"
           width="100%"
           xlink:href="#textext-2b07103c-4"
           x="230.89"
           y="135.075"
           id="use4398" />
        <use
           height="100%"
           width="100%"
           xlink:href="#textext-2b07103c-5"
           x="235.37317"
           y="135.075"
           id="use4400" />
      </g>
      <path
         inkscape:connector-curvature="0"
         style="fill:#000000;fill-opacity:1;fill-rule:nonzero;stroke:none"
         d="m 459.1405,281.33587 5.95312,0 0,-2.39062 -5.95312,0 z m 0,0"
         id="path4402" />
      <g
         transform="matrix(2,0,0,2,-20.570439,11.187432)"
         style="fill:#000000;fill-opacity:1"
         id="g4404">
        <use
           height="100%"
           width="100%"
           xlink:href="#textext-2b07103c-6"
           x="242.832"
           y="135.075"
           id="use4406" />
      </g>
    </g>
    <g
       transform="matrix(3.8786735,0,0,3.8786735,-424.1504,-229.64368)"
       style="fill:#000000;fill-opacity:1"
       id="g4568">
      <use
         height="100%"
         width="100%"
         xlink:href="#textext-2b07103c-1"
         x="233.564"
         y="128.89799"
         id="use4570" />
    </g>
    <g
       transform="matrix(0.85922105,0,0,1,101.94717,0)"
       id="g4572">
      <g
         id="g4574"
         style="fill:#000000;fill-opacity:1"
         transform="matrix(2,0,0,2,-20.570439,11.187432)">
        <use
           id="use4576"
           y="135.075"
           x="223.43201"
           xlink:href="#textext-2b07103c-3"
           width="100%"
           height="100%" />
      </g>
      <path
         id="path4578"
         d="m 435.25768,281.33587 5.95312,0 0,-2.39062 -5.95312,0 z m 0,0"
         style="fill:#000000;fill-opacity:1;fill-rule:nonzero;stroke:none"
         inkscape:connector-curvature="0" />
      <g
         id="g4580"
         style="fill:#000000;fill-opacity:1"
         transform="matrix(2,0,0,2,-20.570439,11.187432)">
        <use
           id="use4582"
           y="135.075"
           x="230.89"
           xlink:href="#textext-2b07103c-4"
           width="100%"
           height="100%" />
        <use
           id="use4584"
           y="135.075"
           x="235.37317"
           xlink:href="#textext-2b07103c-5"
           width="100%"
           height="100%" />
      </g>
      <path
         id="path4586"
         d="m 459.1405,281.33587 5.95312,0 0,-2.39062 -5.95312,0 z m 0,0"
         style="fill:#000000;fill-opacity:1;fill-rule:nonzero;stroke:none"
         inkscape:connector-curvature="0" />
      <g
         id="g4588"
         style="fill:#000000;fill-opacity:1"
         transform="matrix(2,0,0,2,-20.570439,11.187432)">
        <use
           id="use4590"
           y="135.075"
           x="242.832"
           xlink:href="#textext-2b07103c-6"
           width="100%"
           height="100%" />
      </g>
    </g>
    <g
       id="g4866"
       transform="matrix(2.7167251,0,0,2.7167251,-145.70393,-31.494311)"
       ns0:preamble="/home/michael/inksans.preamble"
       ns0:text="$x_i$\n\n">
      <defs
         id="defs4868">
        <g
           id="g4870">
          <symbol
             id="textext-a6f4eaec-0"
             overflow="visible"
             style="overflow:visible">
            <path
               id="path4873"
               d=""
               style="stroke:none"
               inkscape:connector-curvature="0" />
          </symbol>
          <symbol
             id="textext-a6f4eaec-1"
             overflow="visible"
             style="overflow:visible">
            <path
               id="path4876"
               d="m 3.078125,-2.28125 2.28125,-2.140625 -0.828125,0 L 2.859375,-2.78125 1.828125,-4.421875 1,-4.421875 2.421875,-2.28125 0,0 0.8125,0 2.65625,-1.875 3.765625,0 l 0.8125,0 z m 0,0"
               style="stroke:none"
               inkscape:connector-curvature="0" />
          </symbol>
          <symbol
             id="textext-a6f4eaec-2"
             overflow="visible"
             style="overflow:visible">
            <path
               id="path4879"
               d=""
               style="stroke:none"
               inkscape:connector-curvature="0" />
          </symbol>
          <symbol
             id="textext-a6f4eaec-3"
             overflow="visible"
             style="overflow:visible">
            <path
               id="path4882"
               d="m 2.25,-4.78125 -0.703125,0 -0.15625,0.703125 0.703125,0 z M 0.578125,0 l 0.59375,0 0.65625,-3.09375 -0.59375,0 z m 0,0"
               style="stroke:none"
               inkscape:connector-curvature="0" />
          </symbol>
        </g>
      </defs>
      <g
         id="textext-a6f4eaec-4">
        <g
           id="g4885"
           style="fill:#000000;fill-opacity:1">
          <use
             id="use4887"
             y="134.765"
             x="223.43201"
             xlink:href="#textext-a6f4eaec-1"
             width="100%"
             height="100%" />
        </g>
        <g
           id="g4889"
           style="fill:#000000;fill-opacity:1">
          <use
             id="use4891"
             y="136.259"
             x="228.026"
             xlink:href="#textext-a6f4eaec-3"
             width="100%"
             height="100%" />
        </g>
      </g>
    </g>
    <g
       ns0:text="$x_{i+1}$\n\n\n"
       ns0:preamble="/home/michael/inksans.preamble"
       transform="matrix(2.7167251,0,0,2.7167251,-114.26041,-31.494311)"
       id="g5085">
      <defs
         id="defs5087">
        <g
           id="g5089">
          <symbol
             style="overflow:visible"
             overflow="visible"
             id="textext-77384356-0">
            <path
               inkscape:connector-curvature="0"
               style="stroke:none"
               d=""
               id="path5092" />
          </symbol>
          <symbol
             style="overflow:visible"
             overflow="visible"
             id="textext-77384356-1">
            <path
               inkscape:connector-curvature="0"
               style="stroke:none"
               d="m 3.078125,-2.28125 2.28125,-2.140625 -0.828125,0 L 2.859375,-2.78125 1.828125,-4.421875 1,-4.421875 2.421875,-2.28125 0,0 0.8125,0 2.65625,-1.875 3.765625,0 l 0.8125,0 z m 0,0"
               id="path5095" />
          </symbol>
          <symbol
             style="overflow:visible"
             overflow="visible"
             id="textext-77384356-2">
            <path
               inkscape:connector-curvature="0"
               style="stroke:none"
               d=""
               id="path5098" />
          </symbol>
          <symbol
             style="overflow:visible"
             overflow="visible"
             id="textext-77384356-3">
            <path
               inkscape:connector-curvature="0"
               style="stroke:none"
               d="m 2.25,-4.78125 -0.703125,0 -0.15625,0.703125 0.703125,0 z M 0.578125,0 l 0.59375,0 0.65625,-3.09375 -0.59375,0 z m 0,0"
               id="path5101" />
          </symbol>
          <symbol
             style="overflow:visible"
             overflow="visible"
             id="textext-77384356-4">
            <path
               inkscape:connector-curvature="0"
               style="stroke:none"
               d=""
               id="path5104" />
          </symbol>
          <symbol
             style="overflow:visible"
             overflow="visible"
             id="textext-77384356-5">
            <path
               inkscape:connector-curvature="0"
               style="stroke:none"
               d="m 3.03125,-1.578125 2.0625,0 c 0.09375,0 0.25,0 0.25,-0.15625 0,-0.171875 -0.15625,-0.171875 -0.25,-0.171875 l -2.0625,0 0,-2.046875 c 0,-0.109375 0,-0.25 -0.15625,-0.25 -0.15625,0 -0.15625,0.140625 -0.15625,0.25 l 0,2.046875 -2.0625,0 c -0.09375,0 -0.25,0 -0.25,0.171875 0,0.15625 0.15625,0.15625 0.25,0.15625 l 2.0625,0 0,2.046875 c 0,0.109375 0,0.25 0.15625,0.25 0.15625,0 0.15625,-0.140625 0.15625,-0.25 z m 0,0"
               id="path5107" />
          </symbol>
          <symbol
             style="overflow:visible"
             overflow="visible"
             id="textext-77384356-6">
            <path
               inkscape:connector-curvature="0"
               style="stroke:none"
               d="m 2.234375,-4.71875 -0.15625,0 C 1.625,-4.296875 1.0625,-4.265625 0.640625,-4.265625 l 0,0.453125 c 0.265625,-0.015625 0.625,-0.03125 0.96875,-0.171875 l 0,3.546875 -0.921875,0 0,0.4375 2.46875,0 0,-0.4375 -0.921875,0 z m 0,0"
               id="path5110" />
          </symbol>
        </g>
      </defs>
      <g
         id="textext-77384356-7">
        <g
           style="fill:#000000;fill-opacity:1"
           id="g5113">
          <use
             height="100%"
             width="100%"
             xlink:href="#textext-77384356-1"
             x="223.43201"
             y="134.765"
             id="use5115" />
        </g>
        <g
           style="fill:#000000;fill-opacity:1"
           id="g5117">
          <use
             height="100%"
             width="100%"
             xlink:href="#textext-77384356-3"
             x="228.026"
             y="136.259"
             id="use5119" />
        </g>
        <g
           style="fill:#000000;fill-opacity:1"
           id="g5121">
          <use
             height="100%"
             width="100%"
             xlink:href="#textext-77384356-5"
             x="230.483"
             y="136.259"
             id="use5123" />
          <use
             height="100%"
             width="100%"
             xlink:href="#textext-77384356-6"
             x="236.24615"
             y="136.259"
             id="use5125" />
        </g>
      </g>
    </g>
    <g
       id="g5387"
       transform="matrix(2.7167251,0,0,2.7167251,-200.26041,-31.494311)"
       ns0:preamble="/home/michael/inksans.preamble"
       ns0:text="$x_{i-1}$\n\n\n\n">
      <defs
         id="defs5389">
        <g
           id="g5391">
          <symbol
             id="textext-a880f53b-0"
             overflow="visible"
             style="overflow:visible">
            <path
               id="path5394"
               d=""
               style="stroke:none"
               inkscape:connector-curvature="0" />
          </symbol>
          <symbol
             id="textext-a880f53b-1"
             overflow="visible"
             style="overflow:visible">
            <path
               id="path5397"
               d="m 3.078125,-2.28125 2.28125,-2.140625 -0.828125,0 L 2.859375,-2.78125 1.828125,-4.421875 1,-4.421875 2.421875,-2.28125 0,0 0.8125,0 2.65625,-1.875 3.765625,0 l 0.8125,0 z m 0,0"
               style="stroke:none"
               inkscape:connector-curvature="0" />
          </symbol>
          <symbol
             id="textext-a880f53b-2"
             overflow="visible"
             style="overflow:visible">
            <path
               id="path5400"
               d=""
               style="stroke:none"
               inkscape:connector-curvature="0" />
          </symbol>
          <symbol
             id="textext-a880f53b-3"
             overflow="visible"
             style="overflow:visible">
            <path
               id="path5403"
               d="m 2.25,-4.78125 -0.703125,0 -0.15625,0.703125 0.703125,0 z M 0.578125,0 l 0.59375,0 0.65625,-3.09375 -0.59375,0 z m 0,0"
               style="stroke:none"
               inkscape:connector-curvature="0" />
          </symbol>
          <symbol
             id="textext-a880f53b-4"
             overflow="visible"
             style="overflow:visible">
            <path
               id="path5406"
               d=""
               style="stroke:none"
               inkscape:connector-curvature="0" />
          </symbol>
          <symbol
             id="textext-a880f53b-5"
             overflow="visible"
             style="overflow:visible">
            <path
               id="path5409"
               d="m 5.1875,-1.578125 c 0.109375,0 0.28125,0 0.28125,-0.15625 0,-0.1875 -0.171875,-0.1875 -0.28125,-0.1875 l -4.15625,0 c -0.109375,0 -0.28125,0 -0.28125,0.171875 0,0.171875 0.15625,0.171875 0.28125,0.171875 z m 0,0"
               style="stroke:none"
               inkscape:connector-curvature="0" />
          </symbol>
          <symbol
             id="textext-a880f53b-6"
             overflow="visible"
             style="overflow:visible">
            <path
               id="path5412"
               d=""
               style="stroke:none"
               inkscape:connector-curvature="0" />
          </symbol>
          <symbol
             id="textext-a880f53b-7"
             overflow="visible"
             style="overflow:visible">
            <path
               id="path5415"
               d="m 2.234375,-4.71875 -0.15625,0 C 1.625,-4.296875 1.0625,-4.265625 0.640625,-4.265625 l 0,0.453125 c 0.265625,-0.015625 0.625,-0.03125 0.96875,-0.171875 l 0,3.546875 -0.921875,0 0,0.4375 2.46875,0 0,-0.4375 -0.921875,0 z m 0,0"
               style="stroke:none"
               inkscape:connector-curvature="0" />
          </symbol>
        </g>
      </defs>
      <g
         id="textext-a880f53b-8">
        <g
           id="g5418"
           style="fill:#000000;fill-opacity:1">
          <use
             id="use5420"
             y="134.765"
             x="223.43201"
             xlink:href="#textext-a880f53b-1"
             width="100%"
             height="100%" />
        </g>
        <g
           id="g5422"
           style="fill:#000000;fill-opacity:1">
          <use
             id="use5424"
             y="136.259"
             x="228.026"
             xlink:href="#textext-a880f53b-3"
             width="100%"
             height="100%" />
        </g>
        <g
           id="g5426"
           style="fill:#000000;fill-opacity:1">
          <use
             id="use5428"
             y="136.259"
             x="230.483"
             xlink:href="#textext-a880f53b-5"
             width="100%"
             height="100%" />
        </g>
        <g
           id="g5430"
           style="fill:#000000;fill-opacity:1">
          <use
             id="use5432"
             y="136.259"
             x="236.709"
             xlink:href="#textext-a880f53b-7"
             width="100%"
             height="100%" />
        </g>
      </g>
    </g>
  </g>
</svg>
