<?xml version="1.0" encoding="UTF-8" standalone="no"?>
<!-- Created with Inkscape (http://www.inkscape.org/) -->

<svg
   xmlns:dc="http://purl.org/dc/elements/1.1/"
   xmlns:cc="http://creativecommons.org/ns#"
   xmlns:rdf="http://www.w3.org/1999/02/22-rdf-syntax-ns#"
   xmlns:svg="http://www.w3.org/2000/svg"
   xmlns="http://www.w3.org/2000/svg"
   xmlns:sodipodi="http://sodipodi.sourceforge.net/DTD/sodipodi-0.dtd"
   xmlns:inkscape="http://www.inkscape.org/namespaces/inkscape"
   width="310.20041"
   height="384.91318"
   id="svg4655"
   version="1.1"
   inkscape:version="0.91 r13725"
   sodipodi:docname="graphene.svg">
  <defs
     id="defs4657">
    <clipPath
       id="7fc872618f30">
      <path
         style="fill:#000000;fill-opacity:0.35"
         inkscape:connector-curvature="0"
         d="m 138.221,654.767 15.209,0 0,-13.591 -15.209,0 z"
         id="path17" />
    </clipPath>
    <clipPath
       id="7fc87263a9a0">
      <path
         style="fill:#000000;fill-opacity:0.35"
         inkscape:connector-curvature="0"
         d="m 138.221,654.767 15.2,0 0,-13.6 -15.2,0 z"
         id="path22" />
    </clipPath>
    <clipPath
       id="7fc8726250c0">
      <path
         style="fill:#000000;fill-opacity:0.35"
         inkscape:connector-curvature="0"
         d="m 34.4258,554.293 14.4001,0 0,-19.193 -14.4001,0 z"
         id="path29" />
    </clipPath>
    <clipPath
       id="7fc872646c70">
      <path
         style="fill:#000000;fill-opacity:0.35"
         inkscape:connector-curvature="0"
         d="m 35.2258,554.293 13.6,0 0,-19.2 -13.6,0 z"
         id="path34" />
    </clipPath>
    <clipPath
       id="7fc87264ce90">
      <path
         style="fill:#000000;fill-opacity:0.35"
         inkscape:connector-curvature="0"
         d="m 244.153,553.82 27,0 0,-19.012 -27,0 z"
         id="path115" />
    </clipPath>
    <clipPath
       id="7fc872606680">
      <path
         style="fill:#000000;fill-opacity:0.35"
         inkscape:connector-curvature="0"
         d="m 244.153,553.82 27,0 0,-19 -27,0 z"
         id="path120" />
    </clipPath>
    <clipPath
       id="7fc8726477f0">
      <path
         style="fill:#000000;fill-opacity:0.35"
         inkscape:connector-curvature="0"
         d="m 169.637,475.354 27.932,0 0,-19.012 -27.932,0 z"
         id="path129" />
    </clipPath>
    <clipPath
       id="7fc87262e510">
      <path
         style="fill:#000000;fill-opacity:0.35"
         inkscape:connector-curvature="0"
         d="m 169.637,475.354 28,0 0,-19 -28,0 z"
         id="path134" />
    </clipPath>
    <clipPath
       id="7fc8726348b0">
      <path
         style="fill:#000000;fill-opacity:0.35"
         inkscape:connector-curvature="0"
         d="m 169.212,591.112 27.932,0 0,-19.012 -27.932,0 z"
         id="path143" />
    </clipPath>
    <clipPath
       id="7fc872637920">
      <path
         style="fill:#000000;fill-opacity:0.35"
         inkscape:connector-curvature="0"
         d="m 169.212,591.112 28,0 0,-19 -28,0 z"
         id="path148" />
    </clipPath>
  </defs>
  <sodipodi:namedview
     id="base"
     pagecolor="#ffffff"
     bordercolor="#666666"
     borderopacity="1.0"
     inkscape:pageopacity="0.0"
     inkscape:pageshadow="2"
     inkscape:zoom="1.2215567"
     inkscape:cx="103.17731"
     inkscape:cy="121.03677"
     inkscape:document-units="px"
     inkscape:current-layer="layer1"
     showgrid="false"
     fit-margin-top="0"
     fit-margin-left="0"
     fit-margin-right="0"
     fit-margin-bottom="0"
     inkscape:window-width="1855"
     inkscape:window-height="1056"
     inkscape:window-x="65"
     inkscape:window-y="24"
     inkscape:window-maximized="1" />
  <metadata
     id="metadata4660">
    <rdf:RDF>
      <cc:Work
         rdf:about="">
        <dc:format>image/svg+xml</dc:format>
        <dc:type
           rdf:resource="http://purl.org/dc/dcmitype/StillImage" />
        <dc:title></dc:title>
      </cc:Work>
    </rdf:RDF>
  </metadata>
  <g
     inkscape:label="Layer 1"
     inkscape:groupmode="layer"
     id="layer1"
     transform="translate(-94.516933,-223.05253)">
    <g
       id="g14"
       clip-path="url(#7fc872618f30)"
       transform="translate(59.260433,-46.631287)">
      <clipPath
         id="clipPath4561">
        <path
           id="path4563"
           d="m 138.221,654.767 15.209,0 0,-13.591 -15.209,0 z"
           inkscape:connector-curvature="0"
           style="fill:#000000;fill-opacity:0.35" />
      </clipPath>
      <g
         id="g19"
         clip-path="url(#7fc87263a9a0)">
        <clipPath
           id="clipPath4566">
          <path
             id="path4568"
             d="m 138.221,654.767 15.2,0 0,-13.6 -15.2,0 z"
             inkscape:connector-curvature="0"
             style="fill:#000000;fill-opacity:0.35" />
        </clipPath>
        <path
           id="path24"
           d="m 147.104,645.607 c 0.17,-0.745 0.83,-3.387 2.833,-3.387 0.149,0 0.83,0 1.448,0.384 -0.809,0.127 -1.384,0.852 -1.384,1.533 0,0.469 0.319,1.023 1.086,1.023 0.639,0 1.555,-0.533 1.555,-1.683 0,-1.491 -1.704,-1.896 -2.663,-1.896 -1.683,0 -2.684,1.534 -3.025,2.194 -0.724,-1.896 -2.279,-2.194 -3.11,-2.194 -2.982,0 -4.622,3.707 -4.622,4.431 0,0.298 0.298,0.298 0.341,0.298 0.234,0 0.319,-0.064 0.383,-0.319 0.98,-3.047 2.876,-3.771 3.856,-3.771 0.532,0 1.533,0.256 1.533,1.917 0,0.895 -0.49,2.833 -1.533,6.838 -0.469,1.79 -1.47,3.004 -2.748,3.004 -0.171,0 -0.831,0 -1.427,-0.384 0.724,-0.149 1.342,-0.745 1.342,-1.555 0,-0.767 -0.618,-1.001 -1.044,-1.001 -0.874,0 -1.598,0.746 -1.598,1.662 0,1.32 1.449,1.896 2.705,1.896 1.896,0 2.94,-2.003 3.025,-2.173 0.341,1.065 1.364,2.173 3.089,2.173 2.961,0 4.601,-3.707 4.601,-4.41 0,-0.298 -0.255,-0.298 -0.34,-0.298 -0.256,0 -0.32,0.128 -0.363,0.319 -0.958,3.068 -2.918,3.771 -3.834,3.771 -1.108,0 -1.576,-0.916 -1.576,-1.896 0,-0.639 0.17,-1.278 0.49,-2.535 l 0.98,-3.941"
           inkscape:connector-curvature="0"
           style="fill:#000000" />
      </g>
    </g>
    <g
       id="g26"
       clip-path="url(#7fc8726250c0)"
       transform="translate(59.260433,-46.631287)">
      <clipPath
         id="clipPath4572">
        <path
           id="path4574"
           d="m 34.4258,554.293 14.4001,0 0,-19.193 -14.4001,0 z"
           inkscape:connector-curvature="0"
           style="fill:#000000;fill-opacity:0.35" />
      </clipPath>
      <g
         id="g31"
         clip-path="url(#7fc872646c70)">
        <clipPath
           id="clipPath4577">
          <path
             id="path4579"
             d="m 35.2258,554.293 13.6,0 0,-19.2 -13.6,0 z"
             inkscape:connector-curvature="0"
             style="fill:#000000;fill-opacity:0.35" />
        </clipPath>
        <path
           id="path36"
           d="m 48.3998,537.272 c 0.1066,-0.404 0.1066,-0.468 0.1066,-0.66 0,-0.532 -0.4048,-0.788 -0.8308,-0.788 -0.2982,0 -0.7456,0.17 -1.0012,0.618 -0.0639,0.127 -0.2982,1.022 -0.4047,1.533 -0.2131,0.746 -0.4048,1.534 -0.5752,2.301 l -1.2994,5.176 c -0.1065,0.426 -1.3421,2.45 -3.2379,2.45 -1.4699,0 -1.7894,-1.278 -1.7894,-2.343 0,-1.321 0.49,-3.089 1.4698,-5.624 0.4474,-1.171 0.5752,-1.491 0.5752,-2.066 0,-1.3 -0.916,-2.365 -2.3645,-2.365 -2.7267,0 -3.7918,4.176 -3.7918,4.431 0,0.298 0.2983,0.298 0.3409,0.298 0.2982,0 0.3195,-0.064 0.4686,-0.532 0.7669,-2.684 1.9172,-3.558 2.8971,-3.558 0.2343,0 0.7242,0 0.7242,0.916 0,0.725 -0.2982,1.47 -0.4899,2.024 -1.1503,3.046 -1.6616,4.665 -1.6616,6.029 0,2.556 1.8107,3.408 3.4936,3.408 1.129,0 2.1089,-0.49 2.897,-1.278 -0.3621,1.491 -0.7029,2.897 -1.8533,4.409 -0.7455,0.98 -1.8319,1.811 -3.1739,1.811 -0.3835,0 -1.6829,-0.085 -2.1728,-1.193 0.4686,0 0.8307,0 1.2355,-0.362 0.2769,-0.256 0.5751,-0.618 0.5751,-1.172 0,-0.894 -0.7668,-1.001 -1.0651,-1.001 -0.6603,0 -1.6189,0.469 -1.6189,1.875 0,1.427 1.2781,2.492 3.0462,2.492 2.9609,0 5.9219,-2.62 6.7314,-5.858 l 2.7692,-10.971"
           inkscape:connector-curvature="0"
           style="fill:#000000" />
      </g>
    </g>
    <g
       id="g84"
       transform="translate(59.260433,-46.631287)">
      <path
         id="path86"
         d="m 41.5966,647.489 89.6004,0"
         inkscape:connector-curvature="0"
         style="fill:none;stroke:#000000;stroke-width:2" />
      <path
         id="path88"
         d="m 121.197,642.489 10,5 -10,5"
         inkscape:connector-curvature="0"
         style="fill:none;stroke:#000000;stroke-width:2" />
    </g>
    <g
       id="g90"
       transform="translate(59.260433,-46.631287)">
      <path
         id="path92"
         d="m 41.5966,647.489 0,-87.453"
         inkscape:connector-curvature="0"
         style="fill:none;stroke:#000000;stroke-width:2" />
      <path
         id="path94"
         d="m 36.5966,570.036 5,-10 5,10"
         inkscape:connector-curvature="0"
         style="fill:none;stroke:#000000;stroke-width:2" />
    </g>
    <text
       id="text6"
       xml:space="preserve"
       font-size="24"
       style="font-size:24px;font-family:'American Typewriter'"
       x="387.71817"
       y="440.13644"><tspan
         id="tspan8">A</tspan></text>
    <text
       id="text10"
       xml:space="preserve"
       font-size="24"
       style="font-size:24px;font-family:'American Typewriter'"
       x="387.31274"
       y="373.50504"><tspan
         id="tspan12">B</tspan></text>
    <path
       id="path38"
       d="m 377.37424,449.65352 0,-107.722 -26.112,0 0,107.722 z"
       inkscape:connector-curvature="0"
       style="fill:#bcbcbc" />
    <g
       id="g40"
       transform="matrix(0,-1,-1,0,769.55425,622.66253)">
      <path
         id="path42"
         d="m 191.17,522.196 -32.242,55.757"
         inkscape:connector-curvature="0"
         style="fill:none;stroke:#000000;stroke-width:3" />
      <path
         id="path44"
         d="m 170.13,570.568 -11.202,7.385 0.813,-13.392"
         inkscape:connector-curvature="0"
         style="fill:none;stroke:#000000;stroke-width:3" />
    </g>
    <path
       id="path46"
       d="m 247.00024,363.16552 c 0,0 0.302,67.933 0.302,67.933 0,0 58.982,33.705 58.982,33.705 0,0 58.68,-34.228 58.68,-34.228 0,0 -0.302,-67.933 -0.302,-67.933 0,0 -58.982,-33.704 -58.982,-33.704 0,0 -58.68,34.227 -58.68,34.227 z"
       inkscape:connector-curvature="0"
       style="fill:none;stroke:#000000" />
    <path
       id="path48"
       d="m 188.37624,465.33852 c 0,0 0.302,67.9328 0.302,67.9328 0,0 58.982,33.7047 58.982,33.7047 0,0 58.68,-34.2278 58.68,-34.2278 0,0 -0.302,-67.9327 -0.302,-67.9327 0,0 -58.982,-33.705 -58.982,-33.705 0,0 -58.68,34.228 -58.68,34.228 z"
       inkscape:connector-curvature="0"
       style="fill:none;stroke:#000000" />
    <path
       id="path50"
       d="m 129.29124,363.42152 c 0,0 0.302,67.933 0.302,67.933 0,0 58.982,33.705 58.982,33.705 0,0 58.681,-34.228 58.681,-34.228 0,0 -0.302,-67.933 -0.302,-67.933 0,0 -58.983,-33.704 -58.983,-33.704 0,0 -58.68,34.227 -58.68,34.227 z"
       inkscape:connector-curvature="0"
       style="fill:none;stroke:#000000" />
    <path
       id="path52"
       d="m 368.95824,430.69252 c 0,-2.121 -1.719,-3.84 -3.84,-3.84 -2.121,0 -3.84,1.719 -3.84,3.84 0,2.12 1.719,3.84 3.84,3.84 2.121,0 3.84,-1.72 3.84,-3.84 z"
       inkscape:connector-curvature="0"
       style="fill:#ff0004;stroke:#000000;stroke-width:2" />
    <path
       id="path54"
       d="m 309.31024,532.86812 c 0,-2.1208 -1.719,-3.84 -3.84,-3.84 -2.121,0 -3.84,1.7192 -3.84,3.84 0,2.1207 1.719,3.84 3.84,3.84 2.121,0 3.84,-1.7193 3.84,-3.84 z"
       inkscape:connector-curvature="0"
       style="fill:#ff0004;stroke:#000000;stroke-width:2" />
    <path
       id="path56"
       d="m 191.60124,532.35612 c 0,-2.1208 -1.719,-3.84 -3.84,-3.84 -2.121,0 -3.84,1.7192 -3.84,3.84 0,2.1207 1.719,3.84 3.84,3.84 2.121,0 3.84,-1.7193 3.84,-3.84 z"
       inkscape:connector-curvature="0"
       style="fill:#ff0004;stroke:#000000;stroke-width:2" />
    <path
       id="path58"
       d="m 134.25724,430.98052 c 0,-2.121 -1.719,-3.84 -3.84,-3.84 -2.121,0 -3.84,1.719 -3.84,3.84 0,2.12 1.719,3.84 3.84,3.84 2.121,0 3.84,-1.72 3.84,-3.84 z"
       inkscape:connector-curvature="0"
       style="fill:#ff0004;stroke:#000000;stroke-width:2" />
    <path
       id="path60"
       d="m 251.35224,567.17082 c 0,-2.1208 -1.72,-3.84 -3.84,-3.84 -2.121,0 -3.84,1.7192 -3.84,3.84 0,2.1207 1.719,3.84 3.84,3.84 2.12,0 3.84,-1.7193 3.84,-3.84 z"
       inkscape:connector-curvature="0"
       style="fill:#00a0fe;stroke:#000000;stroke-width:2" />
    <path
       id="path62"
       d="m 309.82224,465.01452 c 0,-2.121 -1.719,-3.84 -3.84,-3.84 -2.121,0 -3.84,1.719 -3.84,3.84 0,2.12 1.719,3.84 3.84,3.84 2.121,0 3.84,-1.72 3.84,-3.84 z"
       inkscape:connector-curvature="0"
       style="fill:#00a0fe;stroke:#000000;stroke-width:2" />
    <path
       id="path64"
       d="m 191.60124,465.52652 c 0,-2.121 -1.719,-3.84 -3.84,-3.84 -2.121,0 -3.84,1.719 -3.84,3.84 0,2.12 1.719,3.84 3.84,3.84 2.121,0 3.84,-1.72 3.84,-3.84 z"
       inkscape:connector-curvature="0"
       style="fill:#00a0fe;stroke:#000000;stroke-width:2" />
    <path
       id="path66"
       d="m 368.44624,362.92352 c 0,-2.121 -1.719,-3.84 -3.84,-3.84 -2.121,0 -3.84,1.719 -3.84,3.84 0,2.121 1.719,3.84 3.84,3.84 2.121,0 3.84,-1.719 3.84,-3.84 z"
       inkscape:connector-curvature="0"
       style="fill:#00a0fe;stroke:#000000;stroke-width:2" />
    <path
       id="path68"
       d="m 133.74524,363.11752 c 0,-2.121 -1.719,-3.84 -3.84,-3.84 -2.121,0 -3.84,1.719 -3.84,3.84 0,2.121 1.719,3.84 3.84,3.84 2.121,0 3.84,-1.719 3.84,-3.84 z"
       inkscape:connector-curvature="0"
       style="fill:#00a0fe;stroke:#000000;stroke-width:2" />
    <g
       id="g70"
       transform="matrix(0,-1,-1,0,769.55425,622.66253)">
      <path
         id="path72"
         d="M 192.382,523.22 160.14,467.463"
         inkscape:connector-curvature="0"
         style="fill:none;stroke:#000000;stroke-width:3" />
      <path
         id="path74"
         d="m 160.953,480.855 -0.813,-13.392 11.201,7.385"
         inkscape:connector-curvature="0"
         style="fill:none;stroke:#000000;stroke-width:3" />
    </g>
    <g
       id="g76"
       transform="matrix(0,-1,-1,0,769.55425,622.66253)">
      <path
         id="path78"
         d="m 191.358,522.452 63.323,0.154"
         inkscape:connector-curvature="0"
         style="fill:none;stroke:#000000;stroke-width:3" />
      <path
         id="path80"
         d="m 242.696,516.577 11.985,6.029 -12.014,5.97"
         inkscape:connector-curvature="0"
         style="fill:none;stroke:#000000;stroke-width:3" />
    </g>
    <path
       id="path82"
       d="m 251.19824,431.49252 c 0,-2.121 -1.719,-3.84 -3.84,-3.84 -2.121,0 -3.84,1.719 -3.84,3.84 0,2.12 1.719,3.84 3.84,3.84 2.121,0 3.84,-1.72 3.84,-3.84 z"
       inkscape:connector-curvature="0"
       style="fill:#ff0004;stroke:#000000;stroke-width:2" />
    <g
       id="g96"
       transform="matrix(0,-1,-1,0,769.55425,622.66253)">
      <path
         id="path98"
         d="m 361.264,581.556 c 0,0 -67.933,-0.302 -67.933,-0.302 0,0 -33.705,-58.982 -33.705,-58.982 0,0 34.228,-58.681 34.228,-58.681 0,0 67.933,0.302 67.933,0.302 0,0 33.705,58.983 33.705,58.983 0,0 -34.228,58.68 -34.228,58.68 z"
         inkscape:connector-curvature="0"
         style="fill:none;stroke:#000000" />
      <path
         id="path100"
         d="m 259.643,518.356 c 2.121,0 3.84,1.719 3.84,3.84 0,2.121 -1.719,3.84 -3.84,3.84 -2.121,0 -3.84,-1.719 -3.84,-3.84 0,-2.121 1.719,-3.84 3.84,-3.84 z"
         inkscape:connector-curvature="0"
         style="fill:#00a0fe;stroke:#000000;stroke-width:2" />
      <path
         id="path102"
         d="m 292.956,577.953 c 2.121,0 3.84,1.719 3.84,3.84 0,2.121 -1.719,3.84 -3.84,3.84 -2.12,0 -3.84,-1.719 -3.84,-3.84 0,-2.121 1.72,-3.84 3.84,-3.84 z"
         inkscape:connector-curvature="0"
         style="fill:#ff0004;stroke:#000000;stroke-width:2" />
      <path
         id="path104"
         d="m 293.468,460.244 c 2.121,0 3.84,1.719 3.84,3.84 0,2.121 -1.719,3.84 -3.84,3.84 -2.12,0 -3.84,-1.719 -3.84,-3.84 0,-2.121 1.72,-3.84 3.84,-3.84 z"
         inkscape:connector-curvature="0"
         style="fill:#ff0004;stroke:#000000;stroke-width:2" />
      <path
         id="path106"
         d="m 361.648,459.732 c 2.121,0 3.84,1.719 3.84,3.84 0,2.121 -1.719,3.84 -3.84,3.84 -2.12,0 -3.84,-1.719 -3.84,-3.84 0,-2.121 1.72,-3.84 3.84,-3.84 z"
         inkscape:connector-curvature="0"
         style="fill:#00a0fe;stroke:#000000;stroke-width:2" />
      <path
         id="path108"
         d="m 361.136,577.953 c 2.121,0 3.84,1.719 3.84,3.84 0,2.121 -1.719,3.84 -3.84,3.84 -2.12,0 -3.84,-1.719 -3.84,-3.84 0,-2.121 1.72,-3.84 3.84,-3.84 z"
         inkscape:connector-curvature="0"
         style="fill:#00a0fe;stroke:#000000;stroke-width:2" />
      <path
         id="path110"
         d="m 394.77,518.356 c 2.121,0 3.84,1.719 3.84,3.84 0,2.121 -1.719,3.84 -3.84,3.84 -2.12,0 -3.84,-1.719 -3.84,-3.84 0,-2.121 1.72,-3.84 3.84,-3.84 z"
         inkscape:connector-curvature="0"
         style="fill:#ff0004;stroke:#000000;stroke-width:2" />
    </g>
    <g
       id="g112"
       clip-path="url(#7fc87264ce90)"
       transform="translate(-32.47875,-179.37047)">
      <clipPath
         id="clipPath4620">
        <path
           id="path4622"
           d="m 244.153,553.82 27,0 0,-19.012 -27,0 z"
           inkscape:connector-curvature="0"
           style="fill:#000000;fill-opacity:0.35" />
      </clipPath>
      <g
         id="g117"
         clip-path="url(#7fc872606680)">
        <clipPath
           id="clipPath4625">
          <path
             id="path4627"
             d="m 244.153,553.82 27,0 0,-19 -27,0 z"
             inkscape:connector-curvature="0"
             style="fill:#000000;fill-opacity:0.35" />
        </clipPath>
        <path
           id="path122"
           d="m 255.15,546.524 c 0,0.905 0,2.29 3.115,2.29 l 1.438,0 c 0.612,0 0.959,0 0.959,-0.719 0,-0.693 -0.373,-0.693 -0.773,-0.693 -1.837,-0.026 -1.837,-0.399 -1.837,-1.091 l 0,-6.444 c 0,-2.663 -2.13,-4.607 -6.577,-4.607 -1.704,0 -5.352,0.107 -5.352,2.743 0,1.331 1.039,1.89 1.837,1.89 0.932,0 1.891,-0.639 1.891,-1.89 0,-0.905 -0.559,-1.411 -0.666,-1.465 0.852,-0.186 1.811,-0.213 2.157,-0.213 2.263,0 3.302,1.252 3.302,3.542 l 0,1.012 c -2.13,0.08 -9.719,0.372 -9.719,4.713 0,2.875 3.701,3.408 5.778,3.408 2.396,0 3.808,-1.225 4.447,-2.476 z m -0.506,-4.713 0,2.849 c 0,2.876 -2.743,3.248 -3.515,3.248 -1.518,0 -2.716,-1.038 -2.716,-2.343 0,-3.248 4.74,-3.674 6.231,-3.754"
           inkscape:connector-curvature="0"
           style="fill:#000000" />
        <path
           id="path124"
           d="m 267.665,540 c 0,-0.559 -0.054,-0.586 -0.639,-0.586 -1.332,1.332 -3.222,1.332 -4.101,1.332 l 0,0.772 c 0.506,0 1.891,0 3.036,-0.586 l 0,10.678 c 0,0.692 0,0.958 -2.077,0.958 l -0.799,0 0,0.746 c 0.373,-0.027 2.955,-0.08 3.728,-0.08 0.639,0 3.275,0.053 3.754,0.08 l 0,-0.746 -0.799,0 c -2.103,0 -2.103,-0.266 -2.103,-0.958 l 0,-11.61"
           inkscape:connector-curvature="0"
           style="fill:#000000" />
      </g>
    </g>
    <g
       id="g126"
       clip-path="url(#7fc8726477f0)"
       transform="translate(120.17025,-26.72147)">
      <clipPath
         id="clipPath4632">
        <path
           id="path4634"
           d="m 169.637,475.354 27.932,0 0,-19.012 -27.932,0 z"
           inkscape:connector-curvature="0"
           style="fill:#000000;fill-opacity:0.35" />
      </clipPath>
      <g
         id="g131"
         clip-path="url(#7fc87262e510)">
        <clipPath
           id="clipPath4637">
          <path
             id="path4639"
             d="m 169.637,475.354 28,0 0,-19 -28,0 z"
             inkscape:connector-curvature="0"
             style="fill:#000000;fill-opacity:0.35" />
        </clipPath>
        <path
           id="path136"
           d="m 180.634,468.058 c 0,0.905 0,2.29 3.116,2.29 l 1.438,0 c 0.612,0 0.958,0 0.958,-0.719 0,-0.693 -0.373,-0.693 -0.772,-0.693 -1.837,-0.026 -1.837,-0.399 -1.837,-1.091 l 0,-6.444 c 0,-2.663 -2.131,-4.607 -6.577,-4.607 -1.704,0 -5.352,0.107 -5.352,2.743 0,1.331 1.038,1.89 1.837,1.89 0.932,0 1.89,-0.639 1.89,-1.89 0,-0.905 -0.559,-1.411 -0.665,-1.465 0.852,-0.186 1.81,-0.213 2.157,-0.213 2.263,0 3.301,1.252 3.301,3.542 l 0,1.012 c -2.13,0.08 -9.719,0.372 -9.719,4.713 0,2.875 3.702,3.408 5.778,3.408 2.397,0 3.808,-1.225 4.447,-2.476 z m -0.506,-4.713 0,2.849 c 0,2.876 -2.742,3.248 -3.514,3.248 -1.518,0 -2.716,-1.038 -2.716,-2.343 0,-3.248 4.739,-3.675 6.23,-3.754"
           inkscape:connector-curvature="0"
           style="fill:#000000" />
        <path
           id="path138"
           d="m 196.717,471.04 -0.719,0 c -0.053,0.453 -0.266,1.704 -0.532,1.917 -0.187,0.107 -1.784,0.107 -2.077,0.107 l -3.861,0 c 2.21,-1.944 2.929,-2.53 4.18,-3.515 1.545,-1.225 3.009,-2.53 3.009,-4.527 0,-2.529 -2.236,-4.074 -4.899,-4.074 -2.61,0 -4.367,1.837 -4.367,3.755 0,1.065 0.905,1.171 1.118,1.171 0.506,0 1.119,-0.346 1.119,-1.118 0,-0.373 -0.16,-1.092 -1.252,-1.092 0.639,-1.491 2.077,-1.97 3.062,-1.97 2.104,0 3.169,1.651 3.169,3.328 0,1.837 -1.278,3.275 -1.944,4.021 l -5.059,5.006 c -0.213,0.186 -0.213,0.213 -0.213,0.799 l 8.627,0 0.639,-3.808"
           inkscape:connector-curvature="0"
           style="fill:#000000" />
      </g>
    </g>
    <g
       id="g140"
       clip-path="url(#7fc8726348b0)"
       transform="translate(4.52975,-142.362)">
      <clipPath
         id="clipPath4644">
        <path
           id="path4646"
           d="m 169.212,591.112 27.932,0 0,-19.012 -27.932,0 z"
           inkscape:connector-curvature="0"
           style="fill:#000000;fill-opacity:0.35" />
      </clipPath>
      <g
         id="g145"
         clip-path="url(#7fc872637920)">
        <clipPath
           id="clipPath4649">
          <path
             id="path4651"
             d="m 169.212,591.112 28,0 0,-19 -28,0 z"
             inkscape:connector-curvature="0"
             style="fill:#000000;fill-opacity:0.35" />
        </clipPath>
        <path
           id="path150"
           d="m 180.209,583.817 c 0,0.905 0,2.289 3.116,2.289 l 1.438,0 c 0.612,0 0.958,0 0.958,-0.718 0,-0.693 -0.373,-0.693 -0.772,-0.693 -1.837,-0.026 -1.837,-0.399 -1.837,-1.091 l 0,-6.444 c 0,-2.663 -2.131,-4.607 -6.577,-4.607 -1.704,0 -5.352,0.107 -5.352,2.743 0,1.331 1.038,1.89 1.837,1.89 0.932,0 1.89,-0.639 1.89,-1.89 0,-0.906 -0.559,-1.412 -0.665,-1.465 0.852,-0.186 1.81,-0.213 2.157,-0.213 2.263,0 3.301,1.252 3.301,3.542 l 0,1.011 c -2.13,0.08 -9.719,0.373 -9.719,4.714 0,2.875 3.702,3.408 5.779,3.408 2.396,0 3.807,-1.225 4.446,-2.476 z m -0.506,-4.714 0,2.85 c 0,2.875 -2.742,3.248 -3.514,3.248 -1.518,0 -2.716,-1.038 -2.716,-2.343 0,-3.249 4.739,-3.675 6.23,-3.755"
           inkscape:connector-curvature="0"
           style="fill:#000000" />
        <path
           id="path152"
           d="m 191.419,583.63 c 1.651,0 2.823,1.118 2.823,3.355 0,2.61 -1.518,3.382 -2.743,3.382 -0.825,0 -2.662,-0.24 -3.541,-1.465 0.985,-0.053 1.198,-0.745 1.198,-1.171 0,-0.666 -0.479,-1.172 -1.145,-1.172 -0.586,0 -1.171,0.373 -1.171,1.225 0,1.97 2.183,3.249 4.713,3.249 2.902,0 4.926,-1.944 4.926,-4.048 0,-1.624 -1.358,-3.275 -3.648,-3.754 2.21,-0.772 2.982,-2.344 2.982,-3.622 0,-1.677 -1.891,-2.902 -4.207,-2.902 -2.343,0 -4.127,1.145 -4.127,2.796 0,0.719 0.479,1.118 1.091,1.118 0.666,0 1.065,-0.479 1.065,-1.065 0,-0.612 -0.399,-1.038 -1.065,-1.092 0.746,-0.905 2.184,-1.145 2.956,-1.145 0.959,0 2.263,0.453 2.263,2.29 0,0.879 -0.293,1.838 -0.825,2.477 -0.692,0.799 -1.278,0.852 -2.343,0.905 -0.506,0.053 -0.56,0.053 -0.666,0.053 -0.027,0 -0.213,0.054 -0.213,0.293 0,0.293 0.213,0.293 0.559,0.293 l 1.118,0"
           inkscape:connector-curvature="0"
           style="fill:#000000" />
      </g>
    </g>
  </g>
</svg>
